<svg width="21" height="25" viewBox="0 0 21 25" fill="none" xmlns="http://www.w3.org/2000/svg">
<path d="M20.3293 8.52335C20.1797 8.63586 17.5383 10.0785 17.5383 13.2863C17.5383 16.9967 20.8994 18.3093 21 18.3418C20.9845 18.4218 20.466 20.1395 19.2279 21.8897C18.1238 23.4298 16.9708 24.9675 15.2167 24.9675C13.4626 24.9675 13.0112 23.9799 10.9862 23.9799C9.0129 23.9799 8.31126 25 6.70679 25C5.10232 25 3.9828 23.5749 2.69561 21.8247C1.20464 19.7695 0 16.5767 0 13.5464C0 8.68587 3.26053 6.10811 6.46948 6.10811C8.17455 6.10811 9.59587 7.19322 10.6664 7.19322C11.6853 7.19322 13.2743 6.0431 15.2141 6.0431C15.9493 6.0431 18.5907 6.10811 20.3293 8.52335ZM14.2932 3.9854C15.0954 3.06281 15.6629 1.78268 15.6629 0.50255C15.6629 0.325033 15.6475 0.145015 15.6139 0C14.3087 0.0475047 12.7558 0.842584 11.8194 1.89519C11.0843 2.70527 10.3981 3.9854 10.3981 5.28303C10.3981 5.47805 10.4316 5.67307 10.4471 5.73557C10.5297 5.75057 10.6638 5.76808 10.7979 5.76808C11.969 5.76808 13.442 5.008 14.2932 3.9854Z" fill="black"/>
</svg>
