<svg width="20" height="20" viewBox="0 0 20 20" fill="none" xmlns="http://www.w3.org/2000/svg">
<rect x="0.5" y="0.5" width="19" height="19" rx="9.5" stroke="white"/>
<path d="M14.6806 8.09121C14.6094 8.14521 13.3516 8.83768 13.3516 10.3774C13.3516 12.1584 14.9521 12.7885 15 12.8041C14.9926 12.8425 14.7457 13.667 14.1561 14.5071C13.6304 15.2463 13.0813 15.9844 12.246 15.9844C11.4108 15.9844 11.1958 15.5104 10.2315 15.5104C9.29186 15.5104 8.95775 16 8.19371 16C7.42968 16 6.89657 15.3159 6.28363 14.4758C5.57364 13.4893 5 11.9568 5 10.5022C5 8.16922 6.55263 6.93189 8.0807 6.93189C8.89264 6.93189 9.56946 7.45275 10.0792 7.45275C10.5644 7.45275 11.3211 6.90069 12.2448 6.90069C12.5949 6.90069 13.8527 6.93189 14.6806 8.09121ZM11.8063 5.91299C12.1883 5.47015 12.4585 4.85569 12.4585 4.24122C12.4585 4.15602 12.4512 4.06961 12.4352 4C11.8137 4.0228 11.0742 4.40444 10.6283 4.90969C10.2782 5.29853 9.95148 5.91299 9.95148 6.53585C9.95148 6.62946 9.96745 6.72307 9.97482 6.75308C10.0141 6.76028 10.078 6.76868 10.1419 6.76868C10.6995 6.76868 11.4009 6.40384 11.8063 5.91299Z" fill="white"/>
</svg>
