<svg width="33" height="32" viewBox="0 0 33 32" fill="none" xmlns="http://www.w3.org/2000/svg">
<path d="M21.8307 2.66699V8.00033M11.1641 2.66699V8.00033" stroke="#C7C8CB" stroke-width="1.5" stroke-linecap="round" stroke-linejoin="round"/>
<path d="M17.8333 5.33301H15.1667C10.1383 5.33301 7.6242 5.33301 6.06209 6.8951C4.5 8.45721 4.5 10.9714 4.5 15.9997V18.6663C4.5 23.6946 4.5 26.2089 6.06209 27.7709C7.6242 29.333 10.1383 29.333 15.1667 29.333H17.8333C22.8616 29.333 25.3759 29.333 26.9379 27.7709C28.5 26.2089 28.5 23.6946 28.5 18.6663V15.9997C28.5 10.9714 28.5 8.45721 26.9379 6.8951C25.3759 5.33301 22.8616 5.33301 17.8333 5.33301Z" stroke="#C7C8CB" stroke-width="1.5" stroke-linecap="round" stroke-linejoin="round"/>
<path d="M4.5 13.333H28.5" stroke="#C7C8CB" stroke-width="1.5" stroke-linecap="round" stroke-linejoin="round"/>
</svg>
