<svg width="33" height="32" viewBox="0 0 33 32" fill="none" xmlns="http://www.w3.org/2000/svg">
<path d="M21.8307 2.66663V7.99996M11.1641 2.66663V7.99996" stroke="#1D212D" stroke-width="1.5" stroke-linecap="round" stroke-linejoin="round"/>
<path d="M17.8333 5.33331H15.1667C10.1383 5.33331 7.6242 5.33331 6.06209 6.89541C4.5 8.45751 4.5 10.9717 4.5 16V18.6666C4.5 23.6949 4.5 26.2092 6.06209 27.7712C7.6242 29.3333 10.1383 29.3333 15.1667 29.3333H17.8333C22.8616 29.3333 25.3759 29.3333 26.9379 27.7712C28.5 26.2092 28.5 23.6949 28.5 18.6666V16C28.5 10.9717 28.5 8.45751 26.9379 6.89541C25.3759 5.33331 22.8616 5.33331 17.8333 5.33331Z" stroke="#1D212D" stroke-width="1.5" stroke-linecap="round" stroke-linejoin="round"/>
<path d="M4.5 13.3333H28.5" stroke="#1D212D" stroke-width="1.5" stroke-linecap="round" stroke-linejoin="round"/>
</svg>
