<svg width="33" height="33" viewBox="0 0 33 33" fill="none" xmlns="http://www.w3.org/2000/svg">
<path d="M26.1948 7.44033C24.4215 6.61366 22.5015 6.01366 20.5015 5.66699C20.4663 5.66749 20.4327 5.68187 20.4081 5.70699C20.1681 6.14699 19.8881 6.72033 19.7015 7.16033C17.5801 6.84053 15.4228 6.84053 13.3015 7.16033C13.1148 6.70699 12.8348 6.14699 12.5815 5.70699C12.5681 5.68033 12.5281 5.66699 12.4881 5.66699C10.4881 6.01366 8.58146 6.61366 6.79479 7.44033C6.78146 7.44033 6.76813 7.45366 6.75479 7.46699C3.12813 12.8937 2.12813 18.1737 2.62146 23.4003C2.62146 23.427 2.63479 23.4537 2.66146 23.467C5.06146 25.227 7.36812 26.2937 9.64812 27.0003C9.68813 27.0137 9.72812 27.0003 9.74146 26.9737C10.2748 26.2403 10.7548 25.467 11.1681 24.6537C11.1948 24.6003 11.1681 24.547 11.1148 24.5337C10.3548 24.2403 9.63479 23.8937 8.92812 23.4937C8.87479 23.467 8.87479 23.387 8.91479 23.347C9.06146 23.2403 9.20812 23.1203 9.35479 23.0137C9.38146 22.987 9.42146 22.987 9.44812 23.0003C14.0348 25.0937 18.9815 25.0937 23.5148 23.0003C23.5415 22.987 23.5815 22.987 23.6081 23.0137C23.7548 23.1337 23.9015 23.2403 24.0481 23.3603C24.1015 23.4003 24.1015 23.4803 24.0348 23.507C23.3415 23.9203 22.6081 24.2537 21.8481 24.547C21.7948 24.5603 21.7815 24.627 21.7948 24.667C22.2215 25.4803 22.7015 26.2537 23.2215 26.987C23.2615 27.0003 23.3015 27.0137 23.3415 27.0003C25.6348 26.2937 27.9415 25.227 30.3415 23.467C30.3681 23.4537 30.3815 23.427 30.3815 23.4003C30.9681 17.3603 29.4081 12.1203 26.2481 7.46699C26.2348 7.45366 26.2215 7.44033 26.1948 7.44033ZM11.8615 20.2137C10.4881 20.2137 9.34146 18.947 9.34146 17.387C9.34146 15.827 10.4615 14.5603 11.8615 14.5603C13.2748 14.5603 14.3948 15.8403 14.3815 17.387C14.3815 18.947 13.2615 20.2137 11.8615 20.2137ZM21.1548 20.2137C19.7815 20.2137 18.6348 18.947 18.6348 17.387C18.6348 15.827 19.7548 14.5603 21.1548 14.5603C22.5681 14.5603 23.6881 15.8403 23.6748 17.387C23.6748 18.947 22.5681 20.2137 21.1548 20.2137Z" fill="#1D212D"/>
</svg>
