<svg width="31" height="31" viewBox="0 0 31 31" fill="none" xmlns="http://www.w3.org/2000/svg">
<path d="M3 8L11.6413 12.8962C14.827 14.7013 16.173 14.7013 19.3587 12.8962L28 8" stroke="white" stroke-width="1.875" stroke-linejoin="round"/>
<path d="M3.01971 17.3445C3.10143 21.1765 3.14229 23.0924 4.5562 24.5118C5.9701 25.931 7.93791 25.9804 11.8735 26.0793C14.2991 26.1403 16.7009 26.1403 19.1265 26.0793C23.0621 25.9804 25.0299 25.931 26.4439 24.5118C27.8578 23.0924 27.8986 21.1765 27.9802 17.3445C28.0066 16.1124 28.0066 14.8876 27.9802 13.6555C27.8986 9.82358 27.8578 7.90761 26.4439 6.48833C25.0299 5.06904 23.0621 5.0196 19.1265 4.92071C16.7009 4.85976 14.2991 4.85976 11.8735 4.9207C7.93791 5.01958 5.9701 5.06901 4.55619 6.48831C3.14228 7.9076 3.10142 9.82356 3.0197 13.6555C2.99342 14.8876 2.99344 16.1124 3.01971 17.3445Z" stroke="white" stroke-width="1.875" stroke-linejoin="round"/>
</svg>
