<svg width="20" height="20" viewBox="0 0 20 20" fill="none" xmlns="http://www.w3.org/2000/svg">
<path d="M2.27271 5.36328L7.61458 8.39003C9.58394 9.50587 10.416 9.50587 12.3854 8.39003L17.7273 5.36328" stroke="#1D212D" stroke-width="1.15909" stroke-linejoin="round"/>
<path d="M2.28489 11.1401C2.3354 13.5089 2.36066 14.6933 3.23472 15.5707C4.10877 16.4481 5.32523 16.4786 7.75816 16.5397C9.25762 16.5774 10.7423 16.5774 12.2418 16.5397C14.6747 16.4786 15.8912 16.4481 16.7653 15.5707C17.6393 14.6933 17.6646 13.5089 17.715 11.1401C17.7313 10.3784 17.7313 9.62126 17.715 8.85959C17.6646 6.49076 17.6393 5.30635 16.7653 4.42897C15.8912 3.55159 14.6747 3.52103 12.2418 3.4599C10.7423 3.42222 9.25762 3.42222 7.75816 3.45989C5.32523 3.52102 4.10877 3.55158 3.23471 4.42896C2.36066 5.30634 2.3354 6.49075 2.28488 8.85959C2.26864 9.62126 2.26865 10.3784 2.28489 11.1401Z" stroke="#1D212D" stroke-width="1.15909" stroke-linejoin="round"/>
</svg>
