<svg width="29" height="29" viewBox="0 0 29 29" fill="none" xmlns="http://www.w3.org/2000/svg">
<path d="M5.46919 11.7959L4.87828 11.7959C3.76405 11.7959 3.20695 11.7959 2.86079 12.142C2.51465 12.4882 2.51465 13.0453 2.51465 14.1595L2.51465 24.205C2.51465 25.3192 2.51465 25.8763 2.86079 26.2225C3.20695 26.5686 3.76405 26.5686 4.87828 26.5686L5.46919 26.5686C6.58342 26.5686 7.14053 26.5686 7.48669 26.2225C7.83283 25.8763 7.83283 25.3192 7.83283 24.205L7.83283 14.1595C7.83283 13.0453 7.83283 12.4882 7.48669 12.142C7.14053 11.7959 6.58342 11.7959 5.46919 11.7959Z" stroke="white" stroke-width="1.77273"/>
<path d="M7.83283 5.59171C7.83283 7.06028 6.64231 8.2508 5.17374 8.2508C3.70516 8.2508 2.51465 7.06028 2.51465 5.59171C2.51465 4.12313 3.70516 2.93262 5.17374 2.93262C6.64231 2.93262 7.83283 4.12313 7.83283 5.59171Z" stroke="white" stroke-width="1.77273"/>
<path d="M14.7177 11.7959L13.7416 11.7959C12.6273 11.7959 12.0702 11.7959 11.7241 12.142C11.3779 12.4882 11.3779 13.0453 11.3779 14.1595L11.3779 24.205C11.3779 25.3192 11.3779 25.8763 11.7241 26.2225C12.0702 26.5686 12.6273 26.5686 13.7416 26.5686L14.3325 26.5686C15.4467 26.5686 16.0038 26.5686 16.35 26.2225C16.6961 25.8763 16.6961 25.3192 16.6961 24.205L16.6962 20.0687C16.6962 18.1107 17.3202 16.5233 19.1636 16.5233C20.0852 16.5233 20.8325 17.317 20.8325 18.296L20.8325 23.6142C20.8325 24.7284 20.8325 25.2855 21.1786 25.6317C21.5247 25.9778 22.0819 25.9778 23.1961 25.9778L23.7855 25.9778C24.8995 25.9778 25.4565 25.9778 25.8026 25.6318C26.1488 25.2858 26.1489 24.7288 26.1491 23.6148L26.1508 17.1143C26.1508 14.1773 23.3573 11.7962 20.5923 11.7962C19.0183 11.7962 17.614 12.5677 16.6962 13.7743C16.6961 13.0296 16.6961 12.6573 16.5344 12.3809C16.432 12.2058 16.2861 12.0601 16.1111 11.9577C15.8347 11.7959 15.4624 11.7959 14.7177 11.7959Z" stroke="white" stroke-width="1.77273" stroke-linejoin="round"/>
</svg>
