<svg width="20" height="20" viewBox="0 0 20 20" fill="none" xmlns="http://www.w3.org/2000/svg">
<path d="M7.80431 5.14074L7.49316 4.44066C7.28972 3.98292 7.188 3.75404 7.03587 3.57888C6.84521 3.35938 6.5967 3.19788 6.31868 3.11281C6.09684 3.04492 5.84637 3.04492 5.34545 3.04492C4.61267 3.04492 4.24628 3.04492 3.93872 3.18578C3.57642 3.35171 3.24922 3.712 3.11885 4.08857C3.00818 4.40824 3.03989 4.73675 3.10328 5.39378C3.77813 12.3873 7.61233 16.2215 14.6059 16.8964C15.2629 16.9598 15.5915 16.9915 15.9111 16.8808C16.2877 16.7505 16.6479 16.4232 16.8139 16.061C16.9547 15.7533 16.9547 15.387 16.9547 14.6542C16.9547 14.1533 16.9547 13.9028 16.8869 13.681C16.8018 13.4029 16.6403 13.1544 16.4208 12.9638C16.2457 12.8117 16.0168 12.71 15.559 12.5065L14.8589 12.1953C14.3632 11.975 14.1153 11.8649 13.8635 11.841C13.6224 11.818 13.3794 11.8518 13.1537 11.9397C12.918 12.0315 12.7097 12.2051 12.2928 12.5524C11.878 12.8981 11.6706 13.071 11.4172 13.1636C11.1925 13.2456 10.8954 13.2761 10.6588 13.2411C10.3919 13.2018 10.1875 13.0926 9.77863 12.8741C8.50672 12.1944 7.80529 11.493 7.12555 10.221C6.90708 9.81224 6.79785 9.60777 6.75851 9.34087C6.72363 9.10419 6.75403 8.80715 6.83611 8.58252C6.9287 8.32905 7.10155 8.12163 7.44725 7.70679C7.79454 7.29004 7.96819 7.08166 8.06 6.8459C8.14785 6.62028 8.18168 6.37723 8.15875 6.1362C8.13479 5.88432 8.02463 5.63646 7.80431 5.14074Z" stroke="#1D212D" stroke-width="1.15909" stroke-linecap="round"/>
</svg>
