<svg width="30" height="29" viewBox="0 0 30 29" fill="none" xmlns="http://www.w3.org/2000/svg">
<path d="M3.77319 14.7497C3.77319 9.45715 3.77319 6.81086 5.41739 5.16665C7.06159 3.52246 9.70788 3.52246 15.0005 3.52246C20.293 3.52246 22.9393 3.52246 24.5836 5.16665C26.2277 6.81086 26.2277 9.45715 26.2277 14.7497C26.2277 20.0423 26.2277 22.6886 24.5836 24.3329C22.9393 25.977 20.293 25.977 15.0005 25.977C9.70788 25.977 7.06159 25.977 5.41739 24.3329C3.77319 22.6886 3.77319 20.0423 3.77319 14.7497Z" stroke="white" stroke-width="1.77273" stroke-linejoin="round"/>
<path d="M20.3178 14.7508C20.3178 17.688 17.9368 20.069 14.9996 20.069C12.0624 20.069 9.6814 17.688 9.6814 14.7508C9.6814 11.8137 12.0624 9.43262 14.9996 9.43262C17.9368 9.43262 20.3178 11.8137 20.3178 14.7508Z" stroke="white" stroke-width="1.77273"/>
<path d="M21.5109 8.25L21.4998 8.25" stroke="white" stroke-width="2.36364" stroke-linecap="round" stroke-linejoin="round"/>
</svg>
