<svg width="31" height="31" viewBox="0 0 31 31" fill="none" xmlns="http://www.w3.org/2000/svg">
<path d="M11.9478 7.64029L11.4445 6.50781C11.1154 5.76735 10.9508 5.3971 10.7048 5.11376C10.3963 4.75868 9.99433 4.49743 9.5446 4.35981C9.18573 4.25 8.78057 4.25 7.97026 4.25C6.78488 4.25 6.1922 4.25 5.69466 4.47786C5.10858 4.74628 4.5793 5.3291 4.36841 5.93825C4.18938 6.45536 4.24067 6.98679 4.34322 8.04963C5.43488 19.3627 11.6373 25.5651 22.9503 26.6567C24.0132 26.7594 24.5447 26.8106 25.0617 26.6316C25.6709 26.4208 26.2537 25.8914 26.5222 25.3054C26.7499 24.8077 26.7499 24.2151 26.7499 23.0297C26.7499 22.2194 26.7499 21.8142 26.6402 21.4554C26.5026 21.0056 26.2413 20.6036 25.8862 20.2952C25.6029 20.0491 25.2327 19.8846 24.4922 19.5555L23.3597 19.0521C22.5578 18.6957 22.1568 18.5176 21.7494 18.4789C21.3594 18.4417 20.9663 18.4965 20.6013 18.6386C20.2199 18.7871 19.8829 19.068 19.2087 19.6297C18.5377 20.189 18.2022 20.4686 17.7922 20.6184C17.4287 20.7511 16.9482 20.8004 16.5654 20.7439C16.1336 20.6803 15.8029 20.5036 15.1416 20.1501C13.0841 19.0506 11.9494 17.916 10.8498 15.8584C10.4964 15.1971 10.3197 14.8664 10.2561 14.4346C10.1997 14.0518 10.2488 13.5712 10.3816 13.2079C10.5314 12.7978 10.811 12.4623 11.3702 11.7912C11.932 11.1171 12.2129 10.78 12.3614 10.3986C12.5036 10.0337 12.5583 9.6405 12.5212 9.2506C12.4824 8.84315 12.3042 8.4422 11.9478 7.64029Z" stroke="white" stroke-width="1.875" stroke-linecap="round"/>
</svg>
