<svg width="29" height="29" viewBox="0 0 29 29" fill="none" xmlns="http://www.w3.org/2000/svg">
<path fill-rule="evenodd" clip-rule="evenodd" d="M7.79172 12.7811C6.63618 12.7811 6.39502 13.0079 6.39502 14.0942L6.39502 16.0639C6.39502 17.1504 6.63618 17.377 7.79172 17.377L10.5851 17.377L10.5851 25.2559C10.5851 26.3422 10.8263 26.569 11.9818 26.569L14.7752 26.569C15.9308 26.569 16.1718 26.3422 16.1718 25.2559L16.1718 17.377L19.3084 17.377C20.1848 17.377 20.4107 17.2169 20.6514 16.4247L21.25 14.455C21.6623 13.0979 21.4082 12.7811 19.907 12.7811L16.1718 12.7811L16.1718 9.49828C16.1718 8.77306 16.7971 8.18514 17.5685 8.18514L21.5438 8.18514C22.6993 8.18514 22.9405 7.95841 22.9405 6.87201L22.9405 4.24575C22.9405 3.15935 22.6993 2.93262 21.5438 2.93262L17.5685 2.93262C13.7117 2.93262 10.5851 5.87217 10.5851 9.49828L10.5851 12.7811L7.79172 12.7811Z" stroke="white" stroke-width="1.77273" stroke-linejoin="round"/>
</svg>
