<svg width="32" height="33" viewBox="0 0 32 33" fill="none" xmlns="http://www.w3.org/2000/svg">
<path opacity="0.987" fill-rule="evenodd" clip-rule="evenodd" d="M14.4204 2.45561C15.8704 2.29361 16.7284 2.29361 18.2864 2.45561C21.0443 2.8638 23.6009 4.13858 25.5864 6.09561C24.2447 7.36388 22.9206 8.65067 21.6144 9.95561C19.1131 7.83561 16.3211 7.34627 13.2384 8.48761C10.9771 9.52761 9.40244 11.2129 8.51444 13.5436C7.06332 12.4633 5.6311 11.3578 4.21844 10.2276C4.12026 10.1759 4.00813 10.157 3.89844 10.1736C6.14244 5.84694 9.6491 3.27361 14.4184 2.45361" fill="#F44336"/>
<path opacity="0.997" fill-rule="evenodd" clip-rule="evenodd" d="M3.8925 10.1736C4.00584 10.1563 4.11317 10.1743 4.2145 10.2276C5.62717 11.3578 7.05938 12.4633 8.5105 13.5436C8.28216 14.4517 8.13821 15.379 8.0805 16.3136C8.12984 17.2176 8.27317 18.1049 8.5105 18.9756L4.0005 22.5656C2.0365 18.4616 2.0005 14.3309 3.8925 10.1736Z" fill="#FFC107"/>
<path opacity="0.999" fill-rule="evenodd" clip-rule="evenodd" d="M25.3721 26.9136C23.9678 25.6752 22.4977 24.5135 20.9681 23.4336C22.5014 22.3509 23.4321 20.8656 23.7601 18.9776H16.2461V13.7596C20.5794 13.7236 24.9108 13.7603 29.2401 13.8696C30.0614 18.3296 29.1128 22.3509 26.3941 25.9336C26.0708 26.2772 25.7284 26.6043 25.3721 26.9136Z" fill="#448AFF"/>
<path opacity="0.993" fill-rule="evenodd" clip-rule="evenodd" d="M8.51 18.9777C10.15 23.0537 13.1567 24.9563 17.53 24.6857C18.7577 24.5435 19.9347 24.1147 20.966 23.4337C22.4967 24.5163 23.9647 25.6763 25.37 26.9137C23.1433 28.9146 20.3042 30.1018 17.316 30.2817C16.6371 30.3359 15.9549 30.3359 15.276 30.2817C10.1853 29.6817 6.42667 27.1097 4 22.5657L8.51 18.9777Z" fill="#43A047"/>
</svg>
