<svg width="25" height="25" viewBox="0 0 25 25" fill="none" xmlns="http://www.w3.org/2000/svg">
<path d="M12.4999 0.000146487C5.59648 0.000146487 0 5.59658 0 12.5001C0 19.4038 5.59648 25 12.4999 25C19.4041 25 25 19.404 25 12.5001C25 5.59697 19.4041 0.000732435 12.4997 0.000732435L12.4999 0V0.000146487ZM18.2323 18.0288C18.0084 18.3959 17.5279 18.5126 17.1606 18.287C14.2258 16.4943 10.5312 16.0884 6.18003 17.0825C5.76074 17.1779 5.34282 16.9152 5.24722 16.4958C5.15117 16.0763 5.41294 15.6584 5.8333 15.563C10.5949 14.4751 14.6792 14.9434 17.9742 16.957C18.3415 17.1824 18.4579 17.6615 18.2324 18.0288L18.2323 18.0288ZM19.7624 14.6253C19.4802 15.0837 18.8802 15.2284 18.4219 14.9465C15.0619 12.8811 9.94033 12.2829 5.96606 13.4895C5.45063 13.6452 4.9063 13.3547 4.74995 12.8402C4.59468 12.3248 4.8853 11.7816 5.3998 11.6248C9.9394 10.2474 15.583 10.9145 19.4415 13.2857C19.8998 13.5679 20.0445 14.1679 19.7625 14.6256V14.6255L19.7624 14.6253ZM19.8938 11.0811C15.8649 8.68814 9.21826 8.46821 5.37187 9.63557C4.75425 9.82293 4.10103 9.47434 3.91387 8.8565C3.72676 8.23852 4.07515 7.58583 4.69316 7.39813C9.10859 6.05767 16.4487 6.31661 21.0871 9.07028C21.6438 9.40007 21.826 10.1175 21.496 10.6723C21.1675 11.2279 20.448 11.4111 19.8943 11.0811H19.8938Z" fill="black"/>
</svg>
