<svg width="20" height="20" viewBox="0 0 20 20" fill="none" xmlns="http://www.w3.org/2000/svg">
<path d="M10 0.5C15.2467 0.5 19.5 4.7533 19.5 10C19.5 15.2467 15.2467 19.5 10 19.5C4.7533 19.5 0.5 15.2467 0.5 10C0.5 4.7533 4.7533 0.5 10 0.5Z" stroke="white"/>
<path d="M9.99987 4.00007C6.68627 4.00007 4 6.68627 4 9.99984C4 13.3135 6.68627 15.9996 9.99987 15.9996C13.3138 15.9996 15.9998 13.3136 15.9998 9.99984C15.9998 6.68646 13.3138 4.00035 9.99977 4.00035L9.99987 4V4.00007ZM12.7514 12.6535C12.6439 12.8298 12.4133 12.8858 12.237 12.7775C10.8283 11.917 9.05488 11.7222 6.96637 12.1993C6.76512 12.2451 6.56452 12.1191 6.51863 11.9177C6.47253 11.7164 6.59817 11.5158 6.79994 11.47C9.08549 10.9478 11.0459 11.1726 12.6275 12.1391C12.8038 12.2473 12.8597 12.4772 12.7514 12.6536L12.7514 12.6535ZM13.4858 11.0199C13.3503 11.2399 13.0624 11.3094 12.8424 11.1741C11.2296 10.1827 8.77129 9.89562 6.86367 10.4748C6.61627 10.5495 6.35499 10.4101 6.27994 10.1631C6.20541 9.9157 6.34491 9.65499 6.59187 9.57973C8.77084 8.91862 11.4797 9.23881 13.3318 10.3769C13.5517 10.5124 13.6212 10.8004 13.4859 11.0201V11.02L13.4858 11.0199ZM13.5489 9.31873C11.6151 8.17017 8.4247 8.06461 6.57846 8.62492C6.28201 8.71485 5.96846 8.54753 5.87863 8.25098C5.78882 7.95436 5.95604 7.64108 6.25269 7.55099C8.37206 6.90759 11.8953 7.03188 14.1216 8.35359C14.3888 8.51189 14.4763 8.85623 14.3179 9.12254C14.1602 9.38921 13.8149 9.47715 13.5491 9.31873H13.5489Z" fill="white"/>
</svg>
