<svg width="33" height="23" viewBox="0 0 33 23" fill="none" xmlns="http://www.w3.org/2000/svg">
<path d="M13.0016 16.4243V6.99419L21.2522 11.7098L13.0016 16.4243ZM31.3531 4.02568C30.9805 2.64982 29.928 1.58594 28.5903 1.20946L28.5619 1.20311C25.2012 0.77375 21.3143 0.528401 17.3695 0.528401C16.9685 0.528401 16.5685 0.530516 16.1696 0.535804L16.2307 0.534746C15.8918 0.530516 15.4929 0.527344 15.0919 0.527344C11.1471 0.527344 7.25805 0.772692 3.4406 1.24753L3.89739 1.201C2.53228 1.58488 1.47978 2.64771 1.11456 3.99607L1.10824 4.02357C0.687238 6.25391 0.447266 8.82056 0.447266 11.4433C0.447266 11.5363 0.447266 11.6294 0.448318 11.7214V11.7066C0.448318 11.7848 0.447266 11.8779 0.447266 11.971C0.447266 14.5937 0.68829 17.1592 1.14824 19.6476L1.10824 19.3896C1.48083 20.7655 2.53334 21.8293 3.87108 22.2058L3.89949 22.2122C7.26015 22.6415 11.1471 22.8869 15.0919 22.8869C15.4918 22.8869 15.8918 22.8848 16.2917 22.8795L16.2307 22.8805C16.5696 22.8848 16.9695 22.8879 17.3695 22.8879C21.3153 22.8879 25.2033 22.6426 29.0208 22.1677L28.564 22.2143C29.9301 21.8315 30.9826 20.7676 31.3489 19.4192L31.3552 19.3917C31.7752 17.1614 32.0151 14.5947 32.0151 11.9731C32.0151 11.88 32.0152 11.787 32.0141 11.6949V11.7087C32.0141 11.6304 32.0151 11.5374 32.0151 11.4443C32.0151 8.82162 31.7741 6.25603 31.3142 3.76764L31.3531 4.02568Z" fill="white"/>
</svg>
